{
  "accessors": [
    {
      "bufferView": 2,
      "componentType": 5126,
      "count": 49650,
      "max": [
        1.2601490020751953,
        1.1446726322174072,
        3.1817305088043213
      ],
      "min": [
        -1.260177731513977,
        -2.1039962768554688,
        -0.022435307502746582
      ],
      "type": "VEC3"
    },
    {
      "bufferView": 2,
      "byteOffset": 595800,
      "componentType": 5126,
      "count": 49650,
      "max": [
        0.9999279379844666,
        0.9999635815620422,
        0.9999939203262329
      ],
      "min": [
        -0.9999067783355713,
        -0.999707818031311,
        -0.9994993209838867
      ],
      "type": "VEC3"
    },
    {
      "bufferView": 3,
      "componentType": 5126,
      "count": 49650,
      "max": [
        0.8705882430076599,
        0.886274516582489,
        0.4156862795352936,
        1.0
      ],
      "min": [
        0.7490196228027344,
        0.32156863808631897,
        0.23137255012989044,
        1.0
      ],
      "type": "VEC4"
    },
    {
      "bufferView": 1,
      "componentType": 5126,
      "count": 49650,
      "max": [
        0.8750002384185791,
        1.000000238418579
      ],
      "min": [
        0.0,
        0.0
      ],
      "type": "VEC2"
    },
    {
      "bufferView": 0,
      "componentType": 5125,
      "count": 297060,
      "type": "SCALAR"
    },
    {
      "bufferView": 2,
      "byteOffset": 1191600,
      "componentType": 5126,
      "count": 42634,
      "max": [
        1.3962167501449585,
        0.6327560544013977,
        1.0716310739517212
      ],
      "min": [
        -1.5092520713806152,
        -1.0682185888290405,
        -3.076305866241455
      ],
      "type": "VEC3"
    },
    {
      "bufferView": 2,
      "byteOffset": 1703208,
      "componentType": 5126,
      "count": 42634,
      "max": [
        0.9999960660934448,
        0.9999311566352844,
        0.999991238117218
      ],
      "min": [
        -0.9999727010726929,
        -0.9999914765357971,
        -0.9999972581863403
      ],
      "type": "VEC3"
    },
    {
      "bufferView": 3,
      "byteOffset": 794400,
      "componentType": 5126,
      "count": 42634,
      "max": [
        0.8705882430076599,
        0.886274516582489,
        0.4156862795352936,
        1.0
      ],
      "min": [
        0.7490196228027344,
        0.32156863808631897,
        0.23137255012989044,
        1.0
      ],
      "type": "VEC4"
    },
    {
      "bufferView": 0,
      "byteOffset": 1188240,
      "componentType": 5125,
      "count": 253302,
      "type": "SCALAR"
    },
    {
      "bufferView": 2,
      "byteOffset": 2214816,
      "componentType": 5126,
      "count": 54760,
      "max": [
        -0.036911170929670334,
        0.03777105361223221,
        0.0950462743639946
      ],
      "min": [
        -1.7806589603424072,
        -0.037702906876802444,
        -0.016305333003401756
      ],
      "type": "VEC3"
    },
    {
      "bufferView": 2,
      "byteOffset": 2871936,
      "componentType": 5126,
      "count": 54760,
      "max": [
        0.9982130527496338,
        0.9999719858169556,
        0.9999789595603943
      ],
      "min": [
        -0.9935408234596252,
        -0.9999921917915344,
        -0.9999601244926453
      ],
      "type": "VEC3"
    },
    {
      "bufferView": 3,
      "byteOffset": 1476544,
      "componentType": 5126,
      "count": 54760,
      "max": [
        0.49803921580314636,
        0.46666666865348816,
        0.3843137323856354,
        1.0
      ],
      "min": [
        0.49803921580314636,
        0.46666666865348816,
        0.3843137323856354,
        1.0
      ],
      "type": "VEC4"
    },
    {
      "bufferView": 0,
      "byteOffset": 2201448,
      "componentType": 5125,
      "count": 82140,
      "type": "SCALAR"
    },
    {
      "bufferView": 2,
      "byteOffset": 3529056,
      "componentType": 5126,
      "count": 13678,
      "max": [
        0.20119184255599976,
        0.032899390906095505,
        0.6038805842399597
      ],
      "min": [
        -0.1968086063861847,
        -0.07096685469150543,
        -0.012585480697453022
      ],
      "type": "VEC3"
    },
    {
      "bufferView": 2,
      "byteOffset": 3693192,
      "componentType": 5126,
      "count": 13678,
      "max": [
        0.9994815587997437,
        0.999999463558197,
        0.9982554912567139
      ],
      "min": [
        -0.9999877214431763,
        -0.9999635219573975,
        -0.9991761445999146
      ],
      "type": "VEC3"
    },
    {
      "bufferView": 3,
      "byteOffset": 2352704,
      "componentType": 5126,
      "count": 13678,
      "max": [
        0.45098039507865906,
        0.5960784554481506,
        0.21960784494876862,
        1.0
      ],
      "min": [
        0.45098039507865906,
        0.5960784554481506,
        0.21960784494876862,
        1.0
      ],
      "type": "VEC4"
    },
    {
      "bufferView": 0,
      "byteOffset": 2530008,
      "componentType": 5125,
      "count": 82056,
      "type": "SCALAR"
    },
    {
      "bufferView": 2,
      "byteOffset": 3857328,
      "componentType": 5126,
      "count": 62500,
      "max": [
        0.08776075392961502,
        0.6248263120651245,
        0.8445305824279785
      ],
      "min": [
        -3.5176453590393066,
        -1.5458325147628784,
        -1.4681408405303955
      ],
      "type": "VEC3"
    },
    {
      "bufferView": 2,
      "byteOffset": 4607328,
      "componentType": 5126,
      "count": 62500,
      "max": [
        0.9998886585235596,
        0.9999640583992004,
        0.9999643564224243
      ],
      "min": [
        -0.9998834133148193,
        -0.9999948740005493,
        -0.9999948143959045
      ],
      "type": "VEC3"
    },
    {
      "bufferView": 3,
      "byteOffset": 2571552,
      "componentType": 5126,
      "count": 62500,
      "max": [
        0.41960784792900085,
        0.6470588445663452,
        0.3490196168422699,
        1.0
      ],
      "min": [
        0.41960784792900085,
        0.6470588445663452,
        0.3490196168422699,
        1.0
      ],
      "type": "VEC4"
    },
    {
      "bufferView": 0,
      "byteOffset": 2858232,
      "componentType": 5125,
      "count": 374976,
      "type": "SCALAR"
    },
    {
      "bufferView": 2,
      "byteOffset": 5357328,
      "componentType": 5126,
      "count": 21734,
      "max": [
        0.9778772592544556,
        0.5457469820976257,
        1.2020292282104492
      ],
      "min": [
        -0.4862968623638153,
        -0.5352774858474731,
        -0.8578776121139526
      ],
      "type": "VEC3"
    },
    {
      "bufferView": 2,
      "byteOffset": 5618136,
      "componentType": 5126,
      "count": 21734,
      "max": [
        0.9999561309814453,
        0.9946238398551941,
        0.9999825358390808
      ],
      "min": [
        -0.9999397397041321,
        -0.9945355653762817,
        -0.9997239708900452
      ],
      "type": "VEC3"
    },
    {
      "bufferView": 3,
      "byteOffset": 3571552,
      "componentType": 5126,
      "count": 21734,
      "max": [
        1.0,
        1.0,
        1.0,
        1.0
      ],
      "min": [
        0.16862745583057404,
        0.1568627506494522,
        0.12941177189350128,
        1.0
      ],
      "type": "VEC4"
    },
    {
      "bufferView": 1,
      "byteOffset": 397200,
      "componentType": 5126,
      "count": 21734,
      "max": [
        1.000000238418579,
        1.000000238418579
      ],
      "min": [
        0.0,
        0.0
      ],
      "type": "VEC2"
    },
    {
      "bufferView": 0,
      "byteOffset": 4358136,
      "componentType": 5125,
      "count": 129024,
      "type": "SCALAR"
    }
  ],
  "asset": {
    "extras": {
      "author": "LessaB3D (https://sketchfab.com/thiagolessa90)",
      "license": "CC-BY-4.0 (http://creativecommons.org/licenses/by/4.0/)",
      "source": "https://sketchfab.com/3d-models/treecko-e959ccf10d5a4062988d13297e40e740",
      "title": "Treecko"
    },
    "generator": "Sketchfab-15.0.0",
    "version": "2.0"
  },
  "bufferViews": [
    {
      "buffer": 0,
      "byteLength": 4874232,
      "name": "floatBufferViews",
      "target": 34963
    },
    {
      "buffer": 0,
      "byteLength": 571072,
      "byteOffset": 4874232,
      "byteStride": 8,
      "name": "floatBufferViews",
      "target": 34962
    },
    {
      "buffer": 0,
      "byteLength": 5878944,
      "byteOffset": 5445304,
      "byteStride": 12,
      "name": "floatBufferViews",
      "target": 34962
    },
    {
      "buffer": 0,
      "byteLength": 3919296,
      "byteOffset": 11324248,
      "byteStride": 16,
      "name": "floatBufferViews",
      "target": 34962
    }
  ],
  "buffers": [
    {
      "byteLength": 15243544,
      "uri": "scene.bin"
    }
  ],
  "materials": [
    {
      "doubleSided": true,
      "name": "Tail__0",
      "pbrMetallicRoughness": {
        "metallicFactor": 0.0,
        "roughnessFactor": 0.4678109495190842
      }
    },
    {
      "doubleSided": true,
      "name": "Material",
      "pbrMetallicRoughness": {
        "baseColorFactor": [
          0.8,
          0.8,
          0.8,
          1.0
        ],
        "metallicFactor": 0.0,
        "roughnessFactor": 0.5931416171935
      }
    }
  ],
  "meshes": [
    {
      "name": "head_Material_0",
      "primitives": [
        {
          "attributes": {
            "COLOR_0": 2,
            "NORMAL": 1,
            "POSITION": 0,
            "TEXCOORD_0": 3
          },
          "indices": 4,
          "material": 1,
          "mode": 4
        }
      ]
    },
    {
      "name": "body_Material_0",
      "primitives": [
        {
          "attributes": {
            "COLOR_0": 7,
            "NORMAL": 6,
            "POSITION": 5
          },
          "indices": 8,
          "material": 1,
          "mode": 4
        }
      ]
    },
    {
      "name": "rod_Material_0",
      "primitives": [
        {
          "attributes": {
            "COLOR_0": 11,
            "NORMAL": 10,
            "POSITION": 9
          },
          "indices": 12,
          "material": 1,
          "mode": 4
        }
      ]
    },
    {
      "name": "leaf_Material_0",
      "primitives": [
        {
          "attributes": {
            "COLOR_0": 15,
            "NORMAL": 14,
            "POSITION": 13
          },
          "indices": 16,
          "material": 1,
          "mode": 4
        }
      ]
    },
    {
      "name": "Tail__0",
      "primitives": [
        {
          "attributes": {
            "COLOR_0": 19,
            "NORMAL": 18,
            "POSITION": 17
          },
          "indices": 20,
          "material": 0,
          "mode": 4
        }
      ]
    },
    {
      "name": "eyes_Material_0",
      "primitives": [
        {
          "attributes": {
            "COLOR_0": 23,
            "NORMAL": 22,
            "POSITION": 21,
            "TEXCOORD_0": 24
          },
          "indices": 25,
          "material": 1,
          "mode": 4
        }
      ]
    }
  ],
  "nodes": [
    {
      "children": [
        1
      ],
      "matrix": [
        1.0,
        0.0,
        0.0,
        0.0,
        0.0,
        2.220446049250313e-16,
        -1.0,
        0.0,
        0.0,
        1.0,
        2.220446049250313e-16,
        0.0,
        0.0,
        0.0,
        0.0,
        1.0
      ],
      "name": "Sketchfab_model"
    },
    {
      "children": [
        2
      ],
      "matrix": [
        0.009999999776482582,
        0.0,
        0.0,
        0.0,
        0.0,
        0.0,
        0.009999999776482582,
        0.0,
        0.0,
        -0.009999999776482582,
        0.0,
        0.0,
        0.0,
        0.0,
        0.0,
        1.0
      ],
      "name": "8525cf76d2584d97b53d4d0ac7ed56f9.fbx"
    },
    {
      "children": [
        3,
        5,
        7,
        9,
        11,
        13
      ],
      "name": "RootNode"
    },
    {
      "children": [
        4
      ],
      "matrix": [
        97.55548149094851,
        5.581065998239154e-07,
        -21.97562356496863,
        0.0,
        -21.868141955390634,
        9.878170310724137,
        -97.07834255307598,
        0.0,
        2.1707893120267294,
        99.5109202420155,
        9.636698201613743,
        0.0,
        -2.0967472634574264e-15,
        405.2556457519531,
        -25.33352279663086,
        1.0
      ],
      "name": "head"
    },
    {
      "mesh": 0,
      "name": "head_Material_0"
    },
    {
      "children": [
        6
      ],
      "matrix": [
        100.0,
        0.0,
        0.0,
        0.0,
        0.0,
        -1.629206793918314e-05,
        -99.99999999999868,
        0.0,
        0.0,
        99.99999999999868,
        -1.629206793918314e-05,
        0.0,
        0.0,
        305.66436767578125,
        -17.839012145996094,
        1.0
      ],
      "name": "body"
    },
    {
      "mesh": 1,
      "name": "body_Material_0"
    },
    {
      "children": [
        8
      ],
      "matrix": [
        80.76453596194706,
        29.615600701710513,
        -50.990268206856584,
        0.0,
        -55.55205010685393,
        9.214563011579035,
        -82.63813621707129,
        0.0,
        -19.775247038226038,
        95.0684320809189,
        23.89416875252194,
        0.0,
        -6.668412685394287,
        438.3840637207031,
        76.01604461669922,
        1.0
      ],
      "name": "rod"
    },
    {
      "mesh": 2,
      "name": "rod_Material_0"
    },
    {
      "children": [
        10
      ],
      "matrix": [
        75.57919899295524,
        48.17505346261367,
        -44.35029767045076,
        0.0,
        -59.10567675409164,
        21.039179054189837,
        -77.87086695399358,
        0.0,
        -28.18339324893484,
        85.0677210732723,
        44.375434379573555,
        0.0,
        -127.81240844726563,
        398.0718688964844,
        153.28128051757813,
        1.0
      ],
      "name": "leaf"
    },
    {
      "mesh": 3,
      "name": "leaf_Material_0"
    },
    {
      "children": [
        12
      ],
      "matrix": [
        -54.5126805877487,
        22.0104295485496,
        80.89442901848325,
        0.0,
        80.65025268285277,
        -12.576280604587966,
        57.769995520752985,
        0.0,
        22.888938043713782,
        96.73354930390961,
        -10.895801034255701,
        0.0,
        5.0224147757349513e-14,
        170.56155395507813,
        -57.530941009521484,
        1.0
      ],
      "name": "Tail"
    },
    {
      "mesh": 4,
      "name": "Tail__0"
    },
    {
      "children": [
        14
      ],
      "matrix": [
        24.665757636614494,
        4.4447262725457116e-13,
        -96.91026983871107,
        0.0,
        1.463304543706566e-05,
        -99.99999999999885,
        3.7244257846941835e-06,
        0.0,
        -96.91026983870997,
        -1.5099581656089776e-05,
        -24.665757636614206,
        0.0,
        17.325794219970703,
        557.5044555664063,
        51.57962417602539,
        1.0
      ],
      "name": "eyes"
    },
    {
      "mesh": 5,
      "name": "eyes_Material_0"
    }
  ],
  "scene": 0,
  "scenes": [
    {
      "name": "Sketchfab_Scene",
      "nodes": [
        0
      ]
    }
  ]
}
